# xmcd
#
# Track frame offsets:
# 150
# 13774
# 26693
# 40948
# 54488
# 68132
# 82413
# 95180
# 108385
# 121591
# 136322
# 155717
# 169553
# 183727
#
# Disc length: 2633 seconds
#
#
# Revision: 2
# Processed by: cddbd v1.5.1PL0 Copyright (c) Steve Scherf et al.
# Submitted via: FreeRIP 2.60 
#
DISCID=c20a470e
DTITLE=Various Artist - Ladies Of Jazz Disc 2
DYEAR=1997
DGENRE=Jazz
TTITLE0=Bessie Smith - Nobody knows you when you are down and out
TTITLE1=Bertha Chippie Hill -Trouble in mind
TTITLE2=Ivie Anderson It don't mean a thing
TTITLE3=Mildred Bailey Rockin' Chair
TTITLE4=Ella Fitzgerald - You'll Have to Swing it (Mr. Paganini)
TTITLE5=Ella Fitzgerald - My Heart belongs to daddy
TTITLE6=Lavaida Carter - Jo Jo the Canibal Kid
TTITLE7=Trixie Smith - My Daddy Rocks Me
TTITLE8=Ethel Waters - Bread and Gravy
TTITLE9=Ida Cox - Last Mile Blues (Take2)
TTITLE10=Lee Wiley - Sugar
TTITLE11=Una Mae Carlisle - Walking By The River
TTITLE12=Billie Holiday - Strange Fruit
TTITLE13=Billie Holiday - The Man I Love
EXTD=YEAR: 1997
EXTT0=
EXTT1=
EXTT2=
EXTT3=
EXTT4=
EXTT5=
EXTT6=
EXTT7=
EXTT8=
EXTT9=
EXTT10=
EXTT11=
EXTT12=
EXTT13=
PLAYORDER=
